<?xml version="1.0" encoding="UTF-8"?>
<svg width="70px" height="72px" viewBox="0 0 70 72" version="1.1" xmlns="http://www.w3.org/2000/svg" xmlns:xlink="http://www.w3.org/1999/xlink">
    <!-- Generator: Sketch 52.1 (67048) - http://www.bohemiancoding.com/sketch -->
    <title>Mad</title>
    <desc>Created with Sketch.</desc>
    <g id="Page-1" stroke="none" stroke-width="1" fill="none" fill-rule="evenodd">
        <g id="Landing-Page---Bot-Detected" transform="translate(-510.000000, -1053.000000)" fill="#E53838" fill-rule="nonzero">
            <g id="Query" transform="translate(0.000000, 700.000000)">
                <g id="Output-Card" transform="translate(450.000000, 293.000000)">
                    <g id="Mad" transform="translate(60.000000, 60.000000)">
                        <path d="M35,10.5 C53.7544423,10.5 62.4594815,18.0370522 66.500002,25.0338303 L66.5,3.44902915 L66.5,1.75 L70,1.75 L70,3.44902915 L70,43.8009708 L70,44.6504854 L70,54.25 C70,54.25 70,71.75 35,71.75 C0,71.75 0,54.25 0,54.25 L0,44.6504854 L0,43.8009708 L0,3.44902915 L0,1.75 L3.5,1.75 L3.5,3.44902915 L3.5,25.0338268 C7.54051848,18.0370522 16.2455577,10.5 35,10.5 Z M8.75,45.5 C8.75,52.7503311 14.6282531,58.625 21.8794457,58.625 L48.1205543,58.625 C55.3804003,58.625 61.25,52.7487373 61.25,45.5 C61.25,38.2496689 55.3717469,32.375 48.1205543,32.375 L21.8794457,32.375 C14.6195997,32.375 8.75,38.2512627 8.75,45.5 Z M3.5,1.75 C3.5,0.783501687 2.71649831,0 1.75,0 C0.783501687,0 0,0.783501687 0,1.75 L3.5,1.75 Z M70,1.75 C70,0.783501687 69.2164983,0 68.25,0 C67.2835017,0 66.5,0.783501687 66.5,1.75 L70,1.75 Z M19.1085038,45.0313664 L25.2335038,47.6563664 L26.8420076,48.3457251 L28.2207251,45.1287176 L26.6122214,44.4393588 L20.4872214,41.8143588 L18.8787176,41.125 L17.5,44.3420076 L19.1085038,45.0313664 Z M51.1122214,45.0313664 L44.9872214,47.6563664 L43.3787176,48.3457251 L42,45.1287176 L43.6085038,44.4393588 L49.7335038,41.8143588 L51.3420076,41.125 L52.7207251,44.3420076 L51.1122214,45.0313664 Z" id="Shape"></path>
                    </g>
                </g>
            </g>
        </g>
    </g>
</svg>