<?xml version="1.0" encoding="UTF-8"?>
<svg width="16px" height="16px" viewBox="0 0 16 16" version="1.1" xmlns="http://www.w3.org/2000/svg" xmlns:xlink="http://www.w3.org/1999/xlink">
    <!-- Generator: Sketch 52.1 (67048) - http://www.bohemiancoding.com/sketch -->
    <title>Outline</title>
    <desc>Created with Sketch.</desc>
    <g id="Page-1" stroke="none" stroke-width="1" fill="none" fill-rule="evenodd">
        <g id="Profile---Scanning" transform="translate(-201.000000, -481.000000)" fill="#657786" fill-rule="nonzero" stroke="#647787" stroke-width="0.25">
            <g id="Browser-window" transform="translate(30.000000, 20.000000)">
                <g id="Image-goes-here" transform="translate(0.000000, 56.000000)">
                    <g id="Botcheck" transform="translate(172.000000, 406.000000)">
                        <g id="Outline">
                            <path d="M7,2.04878049 C10.7508885,2.04878049 12.4918963,3.51942483 13.3000004,4.88464982 L13.3,0.672981298 L13.3,0.341463415 L14,0.341463415 L14,0.672981298 L14,8.5465309 L14,8.71228984 L14,10.5853659 C14,10.5853659 14,14 7,14 C0,14 0,10.5853659 0,10.5853659 L0,8.71228984 L0,8.5465309 L0,0.672981298 L0,0.341463415 L0.7,0.341463415 L0.7,0.672981298 L0.7,4.88464914 C1.5081037,3.51942483 3.24911155,2.04878049 7,2.04878049 Z M0.7,7.17073171 L0.7,10.5853659 C0.7,10.5806614 0.701220258,10.5985189 0.706636525,10.635508 C0.717944168,10.7127309 0.739273377,10.8029032 0.77345331,10.902942 C0.87674524,11.2052599 1.06635183,11.5135632 1.36997474,11.8097807 C2.31793625,12.7346212 4.10897599,13.3170732 7,13.3170732 C9.89102401,13.3170732 11.6820637,12.7346212 12.6300253,11.8097807 C12.9336482,11.5135632 13.1232548,11.2052599 13.2265467,10.902942 C13.2607266,10.8029032 13.2820558,10.7127309 13.2933635,10.635508 C13.2987797,10.5985189 13.3,10.5806614 13.3,10.5853659 L13.3,7.17073171 C13.3,7.15168606 13.2975624,7.09817746 13.2894813,7.01539554 C13.2750436,6.86749748 13.2486571,6.70016833 13.2072941,6.51857445 C13.0883114,5.99621137 12.8741047,5.47375606 12.5425648,4.98857575 C11.5828875,3.58416993 9.83533913,2.73170732 7,2.73170732 C4.16466087,2.73170732 2.41711251,3.58416993 1.45743521,4.98857575 C1.12589533,5.47375606 0.911688645,5.99621137 0.792705935,6.51857445 C0.7513429,6.70016833 0.724956365,6.86749748 0.710518708,7.01539554 C0.702818953,7.094271 0.7,7.17073171 0.7,7.17073171 Z M2.45,8.87804878 C2.45,9.91540545 3.31207361,10.7560976 4.37588914,10.7560976 L9.62411086,10.7560976 C10.6888647,10.7560976 11.55,9.91586753 11.55,8.87804878 C11.55,7.84069211 10.6879264,7 9.62411086,7 L4.37588914,7 C3.31113528,7 2.45,7.84023003 2.45,8.87804878 Z M1.75,8.87804878 C1.75,7.46366101 2.92391993,6.31707317 4.37588914,6.31707317 L9.62411086,6.31707317 C11.0743494,6.31707317 12.25,7.46335003 12.25,8.87804878 C12.25,10.2924365 11.0760801,11.4390244 9.62411086,11.4390244 L4.37588914,11.4390244 C2.92565061,11.4390244 1.75,10.2927475 1.75,8.87804878 Z M0.7,0.341463415 C0.7,0.152878378 0.543299662,0 0.35,0 C0.156700337,0 0,0.152878378 0,0.341463415 L0.7,0.341463415 Z M14,0.341463415 C14,0.152878378 13.8432997,0 13.65,0 C13.4567003,0 13.3,0.152878378 13.3,0.341463415 L14,0.341463415 Z M4.375,9.2195122 C4.56829966,9.2195122 4.725,9.06663382 4.725,8.87804878 C4.725,8.68946374 4.56829966,8.53658537 4.375,8.53658537 C4.18170034,8.53658537 4.025,8.68946374 4.025,8.87804878 C4.025,9.06663382 4.18170034,9.2195122 4.375,9.2195122 Z M4.375,9.90243902 C3.79510101,9.90243902 3.325,9.44380389 3.325,8.87804878 C3.325,8.31229367 3.79510101,7.85365854 4.375,7.85365854 C4.95489899,7.85365854 5.425,8.31229367 5.425,8.87804878 C5.425,9.44380389 4.95489899,9.90243902 4.375,9.90243902 Z M9.625,9.2195122 C9.81829966,9.2195122 9.975,9.06663382 9.975,8.87804878 C9.975,8.68946374 9.81829966,8.53658537 9.625,8.53658537 C9.43170034,8.53658537 9.275,8.68946374 9.275,8.87804878 C9.275,9.06663382 9.43170034,9.2195122 9.625,9.2195122 Z M9.625,9.90243902 C9.04510101,9.90243902 8.575,9.44380389 8.575,8.87804878 C8.575,8.31229367 9.04510101,7.85365854 9.625,7.85365854 C10.204899,7.85365854 10.675,8.31229367 10.675,8.87804878 C10.675,9.44380389 10.204899,9.90243902 9.625,9.90243902 Z" id="Shape"></path>
                        </g>
                    </g>
                </g>
            </g>
        </g>
    </g>
</svg>